<svg width="78" height="30" viewBox="0 0 78 30" fill="none" xmlns="http://www.w3.org/2000/svg">
<path d="M40.7971 8.60694C41.6951 8.60694 42.4879 8.7812 43.1754 9.12972C43.8769 9.47823 44.4241 10.0149 44.817 10.7399C45.2099 11.4508 45.4063 12.3709 45.4063 13.5001V19.8988H42.7755V13.8347C42.7755 12.8449 42.558 12.106 42.1231 11.6181C41.6881 11.1302 41.0637 10.8862 40.2499 10.8862C39.6746 10.8862 39.1625 11.0117 38.7135 11.2626C38.2786 11.5136 37.9348 11.883 37.6822 12.3709C37.4437 12.8588 37.3244 13.4792 37.3244 14.232V19.8988H34.6936V13.8347C34.6936 12.8449 34.4761 12.106 34.0412 11.6181C33.6062 11.1302 32.9818 10.8862 32.168 10.8862C31.5928 10.8862 31.0806 11.0117 30.6316 11.2626C30.1967 11.5136 29.8529 11.883 29.6004 12.3709C29.3618 12.8588 29.2426 13.4792 29.2426 14.232V19.8988H26.6118V8.73241H29.1163V11.7018L28.6743 10.8235C29.0532 10.0986 29.6004 9.54793 30.316 9.17154C31.0456 8.79514 31.8734 8.60694 32.7994 8.60694C33.8518 8.60694 34.7638 8.86485 35.5355 9.38065C36.3212 9.89645 36.8404 10.6771 37.0929 11.7227L36.0617 11.3672C36.4265 10.5307 37.0298 9.8616 37.8717 9.35974C38.7135 8.85787 39.6887 8.60694 40.7971 8.60694Z" fill="black"/>
<path d="M48.242 19.8988V8.73241H50.8728V19.8988H48.242ZM49.5679 6.89225C49.0769 6.89225 48.67 6.7389 48.3472 6.43221C48.0386 6.12552 47.8842 5.75609 47.8842 5.32393C47.8842 4.87783 48.0386 4.50841 48.3472 4.21565C48.67 3.90896 49.0769 3.75562 49.5679 3.75562C50.059 3.75562 50.4589 3.90199 50.7676 4.19474C51.0903 4.47356 51.2517 4.82904 51.2517 5.2612C51.2517 5.72124 51.0973 6.11158 50.7886 6.43221C50.48 6.7389 50.0731 6.89225 49.5679 6.89225Z" fill="black"/>
<path d="M52.2632 19.8988L57.2091 13.5001L57.1671 14.9011L52.4526 8.73241H55.3781L58.6824 13.1237H57.5669L60.8923 8.73241H63.7336L58.9771 14.9011L58.9981 13.5001L63.923 19.8988H60.9554L57.4828 15.2357L58.5772 15.3821L55.1676 19.8988H52.2632Z" fill="black"/>
<path d="M66.1801 20.0452C65.703 20.0452 65.2961 19.8849 64.9594 19.5643C64.6226 19.2297 64.4542 18.8115 64.4542 18.3096C64.4542 17.7799 64.6226 17.3616 64.9594 17.0549C65.2961 16.7343 65.703 16.574 66.1801 16.574C66.6571 16.574 67.064 16.7343 67.4008 17.0549C67.7375 17.3616 67.9059 17.7799 67.9059 18.3096C67.9059 18.8115 67.7375 19.2297 67.4008 19.5643C67.064 19.8849 66.6571 20.0452 66.1801 20.0452Z" fill="black"/>
<path d="M21.2235 8.84867C21.2235 6.67531 20.9176 5.09963 20.3059 4.12162C19.7098 3.14361 18.8863 2.6546 17.8353 2.6546C16.8 2.6546 15.8118 3.11256 14.8706 4.02847C13.9451 4.92886 13.2157 6.06987 12.6824 7.45151C12.1647 8.83314 11.9059 10.2303 11.9059 11.643C11.9059 13.5835 12.2275 15.1747 12.8706 16.4166C13.5294 17.6585 14.5176 18.2795 15.8353 18.2795C16.9333 18.2795 17.898 17.806 18.7294 16.859C19.5765 15.8966 20.2039 14.709 20.6118 13.2963C21.0196 11.8836 21.2235 10.4011 21.2235 8.84867ZM21.6471 17.3713C20.9412 18.132 20.0549 18.7452 18.9882 19.2109C17.9373 19.6766 16.7843 19.9095 15.5294 19.9095C14.2745 19.9095 13.1686 19.6301 12.2118 19.0712C11.2706 18.5123 10.5176 17.7672 9.95294 16.8358C8.82353 14.9729 8.25883 12.7995 8.25883 10.3157C8.25883 7.83185 8.87843 5.61968 10.1176 3.67918C11.3726 1.73869 13.0431 0.512291 15.1294 0C15.2549 0.0310476 15.3726 0.0931433 15.4824 0.186288C15.6078 0.279431 15.6784 0.380337 15.6941 0.489006C13.6706 1.94826 12.4471 3.93533 12.0235 6.45021C12.6824 4.61838 13.6706 3.19018 14.9882 2.16559C16.3216 1.12549 17.749 0.605436 19.2706 0.605436C20.7922 0.605436 22.0863 1.25744 23.1529 2.56146C24.2353 3.84995 24.7765 5.72059 24.7765 8.17337C24.7765 10.5796 24.3216 12.7452 23.4118 14.6702C22.9412 15.6947 22.3529 16.5951 21.6471 17.3713Z" fill="black"/>
<path fill-rule="evenodd" clip-rule="evenodd" d="M0.0350797 29.5646C-0.0819816 29.2295 0.103439 28.8659 0.449232 28.7525L2.25662 28.1595C26.6084 20.1702 52.9291 19.7644 77.5308 26.9991C77.8801 27.1019 78.0774 27.4596 77.9713 27.7981C77.8653 28.1367 77.4962 28.3279 77.1469 28.2251C52.8093 21.0681 26.7709 21.4695 2.68054 29.373L0.873148 29.966C0.52736 30.0794 0.152141 29.8998 0.0350797 29.5646Z" fill="black"/>
</svg>
