<svg width="24" height="19" viewBox="0 0 24 19" fill="none" xmlns="http://www.w3.org/2000/svg">
<path fill-rule="evenodd" clip-rule="evenodd" d="M20.5949 2.45999C21.5421 2.71353 22.2865 3.45785 22.54 4.40501C22.9982 6.12001 23 9.70036 23 9.70036C23 9.70036 23 13.2807 22.54 14.9957C22.2865 15.9429 21.5421 16.6872 20.5949 16.9407C18.88 17.4007 12 17.4007 12 17.4007C12 17.4007 5.12001 17.4007 3.405 16.9407C2.45785 16.6872 1.71353 15.9429 1.45999 14.9957C1 13.2807 1 9.70036 1 9.70036C1 9.70036 1 6.12001 1.45999 4.40501C1.71353 3.45785 2.45785 2.71353 3.405 2.45999C5.12001 2 12 2 12 2C12 2 18.88 2 20.5949 2.45999ZM15.5134 9.70067L9.79788 13.0003V6.40101L15.5134 9.70067Z" stroke="white" stroke-width="2.07951" stroke-linejoin="round"/>
</svg>
