<svg width="21" height="24" viewBox="0 0 21 24" fill="none" xmlns="http://www.w3.org/2000/svg">
<path d="M15.8218 5.1344C15.0887 4.29394 14.648 3.19805 14.648 2H13.7293M15.8218 5.1344C16.4899 5.90063 17.3945 6.45789 18.4245 6.67608C18.7446 6.74574 19.0787 6.78293 19.4267 6.78293V10.2191C17.645 10.2191 15.9933 9.64801 14.6478 8.68211V15.6707C14.6478 19.1627 11.8083 22 8.32392 22C6.50049 22 4.8534 21.2198 3.69812 19.98C2.64492 18.847 2 17.3331 2 15.6707C2 12.2298 4.75598 9.42509 8.17079 9.35079M15.8218 5.1344C15.8039 5.12276 15.7861 5.11101 15.7684 5.09914M5.98556 17.3517C5.64223 16.8781 5.43808 16.2977 5.43808 15.6661C5.43808 14.0734 6.73255 12.7778 8.324 12.7778C8.62093 12.7778 8.90856 12.8288 9.17768 12.9124V9.40192C8.89927 9.36473 8.61628 9.34149 8.324 9.34149C8.27294 9.34149 7.86183 9.36884 7.81079 9.36884M13.7245 2H11.2098L11.2051 15.7775C11.1495 17.3192 9.87817 18.5591 8.32392 18.5591C7.35884 18.5591 6.50977 18.0808 5.98086 17.3564" stroke="white" stroke-width="2.07951" stroke-linejoin="round"/>
</svg>
