<svg width="24" height="24" viewBox="0 0 24 24" fill="none" xmlns="http://www.w3.org/2000/svg">
<path fill-rule="evenodd" clip-rule="evenodd" d="M21.9971 12C21.9971 17.5228 17.5199 22 11.9971 22C6.47422 22 1.99707 17.5228 1.99707 12C1.99707 6.47715 6.47422 2 11.9971 2C17.5199 2 21.9971 6.47715 21.9971 12ZM12.3554 9.38244C11.3828 9.787 9.43884 10.6243 6.52364 11.8944C6.05025 12.0827 5.80227 12.2669 5.7797 12.4469C5.74155 12.7513 6.12266 12.8711 6.64162 13.0343C6.71222 13.0565 6.78536 13.0795 6.86034 13.1038C7.37092 13.2698 8.05775 13.464 8.4148 13.4717C8.73868 13.4787 9.10017 13.3452 9.49926 13.0711C12.223 11.2325 13.629 10.3032 13.7173 10.2831C13.7796 10.269 13.8659 10.2512 13.9244 10.3032C13.9828 10.3552 13.9771 10.4536 13.9709 10.48C13.9331 10.641 12.4371 12.0318 11.663 12.7515C11.4216 12.9759 11.2505 13.135 11.2155 13.1714C11.1371 13.2528 11.0572 13.3298 10.9804 13.4038C10.506 13.8611 10.1503 14.204 11.0001 14.764C11.4084 15.0331 11.7352 15.2556 12.0612 15.4776C12.4172 15.7201 12.7723 15.9619 13.2317 16.2631C13.3488 16.3398 13.4606 16.4195 13.5695 16.4971C13.9838 16.7925 14.356 17.0579 14.8159 17.0155C15.0831 16.991 15.3591 16.7397 15.4993 15.9903C15.8306 14.2193 16.4817 10.3821 16.6322 8.80081C16.6454 8.66228 16.6288 8.48498 16.6155 8.40715C16.6022 8.32932 16.5744 8.21842 16.4732 8.13633C16.3534 8.03912 16.1684 8.01861 16.0857 8.02C15.7096 8.0267 15.1325 8.22735 12.3554 9.38244Z" stroke="white" stroke-width="2.07951" stroke-linejoin="round"/>
</svg>
