<svg width="24" height="20" viewBox="0 0 24 20" fill="none" xmlns="http://www.w3.org/2000/svg">
<path d="M22 3.9246C21.2645 4.25051 20.4744 4.47071 19.6438 4.57025C20.4911 4.06289 21.1412 3.25782 21.4477 2.29948C20.655 2.76984 19.7768 3.1116 18.8422 3.29481C18.0935 2.49855 17.0277 2 15.8474 2C13.582 2 11.7446 3.8374 11.7446 6.10464C11.7446 6.42526 11.7816 6.73707 11.8503 7.03832C8.43883 6.86656 5.41672 5.23263 3.39258 2.75046C3.04025 3.35823 2.83766 4.06289 2.83766 4.81335C2.83766 6.23677 3.56258 7.4937 4.66273 8.22919C3.98978 8.20717 3.35735 8.02308 2.80419 7.71567V7.76852C2.80419 9.75654 4.21792 11.4151 6.09583 11.7921C5.75055 11.8855 5.38853 11.9348 5.01506 11.9348C4.75081 11.9348 4.49273 11.9102 4.24258 11.8626C4.76491 13.4921 6.27993 14.6795 8.07593 14.7112C6.67101 15.8122 4.90144 16.4684 2.97948 16.4684C2.64829 16.4684 2.3215 16.449 2 16.4112C3.81626 17.5765 5.97252 18.2547 8.28909 18.2547C15.8378 18.2547 19.9644 12.0026 19.9644 6.58029C19.9644 6.40412 19.96 6.2262 19.9521 6.05003C20.7536 5.47045 21.4495 4.74905 21.9982 3.92724L22 3.9246Z" stroke="white" stroke-width="2.07951" stroke-linejoin="round"/>
</svg>
