<svg width="23" height="23" viewBox="0 0 23 23" fill="none" xmlns="http://www.w3.org/2000/svg">
<path d="M2.0617 7.24464C2.10847 6.22264 2.26849 5.56351 2.4849 5.00402L2.48781 4.99629C2.70226 4.42695 3.03821 3.91119 3.47227 3.48489L3.47836 3.47891L3.48434 3.47282C3.91099 3.0382 4.42694 2.70258 4.99578 2.4887L5.00559 2.48495C5.56381 2.26786 6.22165 2.10843 7.2445 2.06167M2.0617 7.24464C2.01253 8.33659 2 8.67508 2 11.5063C2 14.3381 2.01184 14.6758 2.06167 15.768M2.0617 7.24464L2.0617 7.52008M2.4887 18.0168C2.70258 18.5856 3.0382 19.1015 3.47282 19.5282L3.4789 19.5342L3.48487 19.5402C3.91119 19.9743 4.42697 20.3103 4.99631 20.5247L5.00481 20.5279C5.56354 20.7446 6.2217 20.9041 7.2445 20.9509M2.4887 18.0168L2.48495 18.0069C2.26786 17.4487 2.10843 16.7909 2.06167 15.768M2.4887 18.0168L2.47588 17.9492M2.06167 15.768L2.07842 15.8562M2.06167 15.768L2.06167 15.4919M2.47588 17.9492L2.07842 15.8562M2.47588 17.9492C2.30707 17.5033 2.13325 16.881 2.07842 15.8562M2.47588 17.9492C2.4818 17.9649 2.48771 17.9803 2.49362 17.9955C2.70769 18.5726 3.04689 19.0952 3.48682 19.5256C3.91712 19.9655 4.43947 20.3046 5.01639 20.5187C5.47938 20.699 6.13176 20.8875 7.24434 20.9385C8.36713 20.9896 8.71402 21 11.5063 21C14.2985 21 14.6457 20.9896 15.7685 20.9385C16.8825 20.8874 17.5341 20.6979 17.9954 20.519C18.5727 20.305 19.0953 19.9657 19.5257 19.5256C19.9655 19.0953 20.3046 18.573 20.5187 17.9961C20.699 17.5331 20.8875 16.8808 20.9385 15.7682C20.9896 14.6454 21 14.2978 21 11.5063C21 8.71472 20.9896 8.36684 20.9385 7.24405C20.8871 6.12427 20.6959 5.47168 20.5162 5.00992C20.2811 4.40322 19.9831 3.94437 19.525 3.48627C19.0678 3.02999 18.6102 2.73179 18.0031 2.49654C17.5396 2.31537 16.8866 2.12531 15.7685 2.07406C15.6712 2.06964 15.5798 2.06552 15.4921 2.06168M2.07842 15.8562C2.07687 15.8273 2.07542 15.7981 2.07406 15.7685C2.06964 15.6712 2.06551 15.5797 2.06167 15.4919M7.2445 2.06167C8.33671 2.01184 8.67508 2 11.5063 2C14.3374 2 14.6757 2.01252 15.7676 2.06168M7.2445 2.06167L7.52065 2.06167M15.7676 2.06168L15.4921 2.06168M15.7676 2.06168C16.7898 2.10844 17.449 2.26844 18.0085 2.48487L18.0162 2.48781C18.5856 2.70226 19.1013 3.03821 19.5276 3.47227L19.5336 3.4783L19.5396 3.48422C19.9737 3.91055 20.3096 4.42646 20.5239 4.99596L20.5276 5.00559C20.7447 5.56381 20.9041 6.22165 20.9509 7.2445M7.52065 2.06167L15.4921 2.06168M7.52065 2.06167C8.44551 2.02123 8.95669 2.01253 11.5063 2.01253C14.0561 2.01253 14.5671 2.02124 15.4921 2.06168M7.52065 2.06167C7.43287 2.06551 7.34137 2.06964 7.24405 2.07406C6.13007 2.12512 5.47846 2.31464 5.01711 2.49358C4.4377 2.70837 3.91331 3.04936 3.48195 3.49186C3.02813 3.94756 2.73108 4.40422 2.49658 5.0094C2.31539 5.4728 2.1253 6.12614 2.07405 7.24434C2.06964 7.34135 2.06552 7.43257 2.0617 7.52008M20.9509 15.768C20.9041 16.7908 20.7447 17.449 20.528 18.0077L20.5247 18.0162C20.3103 18.5856 19.9743 19.1013 19.5403 19.5276L19.5342 19.5336L19.5282 19.5397C19.1015 19.9743 18.5856 20.3099 18.0168 20.5238L18.0069 20.5276C17.4487 20.7447 16.7909 20.9041 15.768 20.9509M2.06167 15.4919C2.02123 14.567 2.01253 14.0558 2.01253 11.5063C2.01253 8.95591 2.02123 8.44544 2.0617 7.52008M2.06167 15.4919L2.0617 7.52008M9.81551 15.5881C10.3516 15.8101 10.9261 15.9244 11.5063 15.9244C12.678 15.9244 13.8018 15.4589 14.6304 14.6304C15.4589 13.8018 15.9244 12.678 15.9244 11.5063C15.9244 10.3345 15.4589 9.21072 14.6304 8.38215C13.8018 7.55359 12.678 7.0881 11.5063 7.0881C10.9261 7.0881 10.3515 7.20238 9.81551 7.42442C9.27948 7.64645 8.79242 7.97189 8.38216 8.38215C7.9719 8.79242 7.64646 9.27947 7.42442 9.81551C7.20239 10.3515 7.08811 10.9261 7.08811 11.5063C7.08811 12.0865 7.20239 12.661 7.42442 13.197C7.64646 13.7331 7.9719 14.2201 8.38216 14.6304C8.79242 15.0406 9.27948 15.3661 9.81551 15.5881ZM8.37232 8.37231C9.20349 7.54113 10.3308 7.07418 11.5063 7.07418C12.6817 7.07418 13.809 7.54113 14.6402 8.37231C15.4714 9.20349 15.9383 10.3308 15.9383 11.5063C15.9383 12.6817 15.4714 13.809 14.6402 14.6402C13.809 15.4714 12.6817 15.9383 11.5063 15.9383C10.3308 15.9383 9.20349 15.4714 8.37232 14.6402C7.54114 13.809 7.07419 12.6817 7.07419 11.5063C7.07419 10.3308 7.54114 9.20349 8.37232 8.37231ZM18.434 6.04229C18.434 6.37873 18.3004 6.70139 18.0625 6.93929C17.8246 7.17719 17.5019 7.31084 17.1655 7.31084C16.829 7.31084 16.5064 7.17719 16.2685 6.93929C16.0306 6.70139 15.8969 6.37873 15.8969 6.04229C15.8969 5.70585 16.0306 5.38319 16.2685 5.1453C16.5064 4.9074 16.829 4.77375 17.1655 4.77375C17.5019 4.77375 17.8246 4.9074 18.0625 5.1453C18.3004 5.38319 18.434 5.70585 18.434 6.04229Z" stroke="white" stroke-width="2.07951" stroke-linejoin="round"/>
</svg>
