<svg width="27" height="31" viewBox="0 0 27 31" fill="none" xmlns="http://www.w3.org/2000/svg">
<path d="M20.636 13.8C20.636 10.44 20.168 8.004 19.232 6.492C18.32 4.98 17.06 4.224 15.452 4.224C13.868 4.224 12.356 4.932 10.916 6.348C9.5 7.74 8.384 9.504 7.568 11.64C6.776 13.776 6.38 15.936 6.38 18.12C6.38 21.12 6.872 23.58 7.856 25.5C8.864 27.42 10.376 28.38 12.392 28.38C14.072 28.38 15.548 27.648 16.82 26.184C18.116 24.696 19.076 22.86 19.7 20.676C20.324 18.492 20.636 16.2 20.636 13.8ZM21.284 26.976C20.204 28.152 18.848 29.1 17.216 29.82C15.608 30.54 13.844 30.9 11.924 30.9C10.004 30.9 8.312 30.468 6.848 29.604C5.408 28.74 4.256 27.588 3.392 26.148C1.664 23.268 0.8 19.908 0.8 16.068C0.8 12.228 1.748 8.808 3.644 5.808C5.564 2.808 8.12 0.911998 11.312 0.119998C11.504 0.167998 11.684 0.263998 11.852 0.407999C12.044 0.551999 12.152 0.707999 12.176 0.875999C9.08 3.132 7.208 6.204 6.56 10.092C7.568 7.26 9.08 5.052 11.096 3.468C13.136 1.86 15.32 1.056 17.648 1.056C19.976 1.056 21.956 2.064 23.588 4.08C25.244 6.072 26.072 8.964 26.072 12.756C26.072 16.476 25.376 19.824 23.984 22.8C23.264 24.384 22.364 25.776 21.284 26.976Z" fill="#212429"/>
</svg>
